<svg width="3547" height="1603" viewBox="0 0 3547 1603" fill="none" xmlns="http://www.w3.org/2000/svg">
<rect width="3547" height="1603" fill="white"/>
<g id="LEVEL 3">
<g id="Floor Outline">
<line id="Line 42" x1="2182.5" y1="460.994" x2="2182.75" y2="573.994" stroke="black" stroke-width="5"/>
<line id="Line 44" x1="2017.5" y1="203" x2="2017.49" y2="464" stroke="black" stroke-width="5"/>
<line id="Line 68" x1="1894.75" y1="141.987" x2="1894.75" y2="458.013" stroke="black" stroke-width="5"/>
<line id="Line 69" x1="1662.25" y1="141.999" x2="1662.25" y2="393.001" stroke="black" stroke-width="5"/>
<line id="Line 70" x1="1892.25" y1="390.5" x2="1659.75" y2="390.501" stroke="black" stroke-width="5"/>
<line id="Line 118" x1="2020.26" y1="573.5" x2="1686.26" y2="574.501" stroke="black" stroke-width="5"/>
<line id="Line 119" x1="2022.75" y1="571" x2="2022.75" y2="725" stroke="black" stroke-width="5"/>
<line id="Line 122" x1="2113.25" y1="793.996" x2="2113.25" y2="1393" stroke="black" stroke-width="5"/>
<line id="Line 121" x1="1688.75" y1="458.991" x2="1688.75" y2="575.009" stroke="black" stroke-width="5"/>
<path id="Line 120" d="M2112.25 796L2022.25 722" stroke="black" stroke-width="5"/>
<line id="Line 75" x1="1897.25" y1="459.5" x2="2.24999" y2="459.5" stroke="black" stroke-width="5"/>
<line id="Line 72" x1="1473.25" y1="82.5" x2="1249.25" y2="82.5" stroke="black" stroke-width="5"/>
<line id="Line 73" x1="1471" y1="82.2179" x2="1595" y2="204.218" stroke="black" stroke-width="5"/>
<line id="Line 74" x1="1593.5" y1="459" x2="1593.5" y2="201.991" stroke="black" stroke-width="5"/>
<line id="Line 86" x1="1251.75" y1="179" x2="1251.75" y2="2.00001" stroke="black" stroke-width="5"/>
<path id="Line 114" d="M1411.75 179V84" stroke="black" stroke-width="5"/>
<path id="Line 115" d="M1307.25 142V80" stroke="black" stroke-width="5"/>
<path id="Line 116" d="M1358.25 142V80" stroke="black" stroke-width="5"/>
<path id="Line 117" d="M1411.25 139.5L1253.25 139.5" stroke="black" stroke-width="5"/>
<line id="Line 89" x1="61.75" y1="179" x2="61.75" y2="2.00001" stroke="black" stroke-width="5"/>
<line id="Line 91" x1="94.25" y1="235.5" x2="1892.25" y2="235.5" stroke="black" stroke-width="5"/>
<line id="Line 85" x1="91.75" y1="460.016" x2="91.75" y2="233" stroke="black" stroke-width="5"/>
<path id="Line 107" d="M62.254 313.5H0.245968" stroke="black" stroke-width="5"/>
<path id="Line 109" d="M94.2507 385.25H0.246458" stroke="black" stroke-width="5"/>
<path id="Line 110" d="M46.75 315.005L46.75 261.995" stroke="black" stroke-width="5"/>
<path id="Line 111" d="M60.25 385L60.25 312" stroke="black" stroke-width="5"/>
<path id="Line 108" d="M48.25 264H2.25" stroke="black" stroke-width="5"/>
<path id="Line 112" d="M62.25 131L0.249998 131" stroke="black" stroke-width="5"/>
<line id="Line 43" x1="2015" y1="461.5" x2="2186" y2="461.5" stroke="black" stroke-width="5"/>
<line id="Line 45" x1="2135" y1="87.5628" x2="2293" y2="87.5628" stroke="black" stroke-width="5"/>
<line id="Line 47" x1="2291.25" y1="0.990121" x2="2291.5" y2="89.993" stroke="black" stroke-width="5"/>
<line id="Line 46" x1="2017.24" y1="205.225" x2="2137.24" y2="86.2248" stroke="black" stroke-width="5"/>
<line id="Line 1" x1="2.5" y1="1.99999" x2="2.5" y2="1603" stroke="black" stroke-width="5"/>
<line id="Line 123" x1="2019.75" y1="1461.98" x2="2020.76" y2="1597.98" stroke="black" stroke-width="5"/>
<line id="Line 124" x1="2020.71" y1="1464.03" x2="2113.71" y2="1391.03" stroke="black" stroke-width="5"/>
<line id="Line 52" x1="2182.75" y1="574" x2="2182.75" y2="1602" stroke="black" stroke-width="5"/>
<line id="Line 2" x1="3544.25" y1="1600.5" x2="0.249756" y2="1600.5" stroke="black" stroke-width="5"/>
<line id="Line 3" x1="3543.25" y1="1602" x2="3543.25" y2="0.99939" stroke="black" stroke-width="5"/>
<line id="Line 4" x1="3546.25" y1="3.00002" x2="2047.25" y2="3.00002" stroke="black" stroke-width="5"/>
<line id="Line 5" x1="2049.01" y1="1.77397" x2="1906.01" y2="143.774" stroke="black" stroke-width="5"/>
<line id="Line 6" x1="1642.25" y1="142.5" x2="1908.25" y2="142.5" stroke="black" stroke-width="5"/>
<line id="Line 7" x1="1643.51" y1="143.792" x2="1497.51" y2="1.79215" stroke="black" stroke-width="5"/>
<line id="Line 11" x1="1499.25" y1="3.49764" x2="2.25256" y2="3.49764" stroke="black" stroke-width="5"/>
</g>
<g id="VOID">
<rect id="Rectangle 1" x="3077.5" y="1289.5" width="465" height="311" stroke="black" stroke-width="5"/>
<text id="VOID_2" fill="black" xml:space="preserve" style="white-space: pre" font-family="Inter" font-size="16" font-weight="bold" letter-spacing="0em"><tspan x="3290.02" y="1447.32">VOID</tspan></text>
</g>
<g id="LECTURE HALL 3R026">
<rect id="Rectangle 1_2" x="2838.5" y="1289.5" width="238" height="311" stroke="black" stroke-width="5"/>
<text id="LECTURE HALL 3R026_2" fill="black" xml:space="preserve" style="white-space: pre" font-family="Inter" font-size="12" font-weight="bold" letter-spacing="0em"><tspan x="2912.75" y="1443.86">LECTURE HALL&#10;</tspan><tspan x="2937.74" y="1458.86">3R026</tspan></text>
</g>
<g id="LECTURE ROOM 3R025">
<rect id="Rectangle 1_3" x="3362.5" y="1105.1" width="181" height="184.399" stroke="black" stroke-width="5"/>
<text id="LECTURE ROOM 3R025_2" fill="black" xml:space="preserve" style="white-space: pre" font-family="Inter" font-size="12" font-weight="bold" letter-spacing="0em"><tspan x="3405.21" y="1201.37">LECTURE ROOM&#10;</tspan><tspan x="3433.33" y="1216.37">3R025</tspan></text>
</g>
<g id="LECTURE ROOM 3R024">
<rect id="Rectangle 1_4" x="3362.5" y="908.416" width="181" height="195.483" stroke="black" stroke-width="5"/>
<text id="LECTURE ROOM 3R024_2" fill="black" xml:space="preserve" style="white-space: pre" font-family="Inter" font-size="12" font-weight="bold" letter-spacing="0em"><tspan x="3405.21" y="1009.86">LECTURE ROOM&#10;</tspan><tspan x="3433.22" y="1024.86">3R024</tspan></text>
</g>
<g id="LECTURE ROOM 3R022">
<rect id="Rectangle 1_5" x="3362.5" y="712.5" width="181" height="195.483" stroke="black" stroke-width="5"/>
<text id="LECTURE ROOM 3R022_2" fill="black" xml:space="preserve" style="white-space: pre" font-family="Inter" font-size="12" font-weight="bold" letter-spacing="0em"><tspan x="3405.21" y="813.948">LECTURE ROOM&#10;</tspan><tspan x="3433.42" y="828.948">3R022</tspan></text>
</g>
<g id="LECTURE ROOM 3R020">
<rect id="Rectangle 1_6" x="3362.5" y="566.5" width="181" height="145.483" stroke="black" stroke-width="5"/>
<text id="LECTURE ROOM 3R020_2" fill="black" xml:space="preserve" style="white-space: pre" font-family="Inter" font-size="12" font-weight="bold" letter-spacing="0em"><tspan x="3405.21" y="644.982">LECTURE ROOM&#10;</tspan><tspan x="3433.07" y="659.982">3R020</tspan></text>
</g>
<g id="LECTURE ROOM 3R018">
<rect id="Rectangle 1_7" x="3362.5" y="440.5" width="181" height="125.483" stroke="black" stroke-width="5"/>
<text id="LECTURE ROOM 3R018_2" fill="black" xml:space="preserve" style="white-space: pre" font-family="Inter" font-size="12" font-weight="bold" letter-spacing="0em"><tspan x="3405.21" y="509.796">LECTURE ROOM&#10;</tspan><tspan x="3434.07" y="524.796">3R018</tspan></text>
</g>
<g id="OKU TOILET 2RT03">
<rect id="Rectangle 1_8" x="3362.5" y="394.5" width="59" height="46.483" stroke="black" stroke-width="5"/>
<text id="OKU TOILET 2RT03_2" fill="black" xml:space="preserve" style="white-space: pre" font-family="Inter" font-size="10" font-weight="bold" letter-spacing="0em"><tspan x="3380.3" y="408.636">OKU &#10;</tspan><tspan x="3374.74" y="420.636">TOILET&#10;</tspan><tspan x="3375.95" y="432.636">2RT03</tspan></text>
</g>
<g id="MALE TOILETS 2RT02">
<rect id="Rectangle 1_9" x="3362.5" y="298.5" width="85.2859" height="94.483" stroke="black" stroke-width="5"/>
<text id="MALE TOILETS 2RT02_2" fill="black" xml:space="preserve" style="white-space: pre" font-family="Inter" font-size="12" font-weight="bold" letter-spacing="0em"><tspan x="3387.86" y="336.864">MALE&#10;</tspan><tspan x="3379.72" y="351.864">TOILETS&#10;</tspan><tspan x="3385.29" y="366.864">2RT02</tspan></text>
</g>
<g id="FEMALE TOILETS 2RT02">
<rect id="Rectangle 1_10" x="3362.5" y="165.5" width="85.2859" height="132.483" stroke="black" stroke-width="5"/>
<text id="FEMALE TOILETS 2RT02_2" fill="black" xml:space="preserve" style="white-space: pre" font-family="Inter" font-size="12" font-weight="bold" letter-spacing="0em"><tspan x="3380.68" y="214.941">FEMALE&#10;</tspan><tspan x="3379.72" y="229.941">TOILETS&#10;</tspan><tspan x="3385.29" y="244.941">2RT02</tspan></text>
</g>
<g id="STAIR 2">
<rect id="Rectangle 1_11" x="3381.5" y="106.5" width="161.176" height="58.483" stroke="black" stroke-width="5"/>
<text id="STAIR 2_2" fill="black" xml:space="preserve" style="white-space: pre" font-family="Inter" font-size="12" font-weight="bold" letter-spacing="0em"><tspan x="3439" y="134.369">STAIR 2</tspan></text>
</g>
<g id="LOBBY 3R041">
<rect id="Rectangle 1_12" x="3309.87" y="3.5" width="233.454" height="102" stroke="black" stroke-width="5"/>
<text id="LOBBY 3R041_2" fill="black" xml:space="preserve" style="white-space: pre" font-family="Inter" font-size="12" font-weight="bold" letter-spacing="0em"><tspan x="3405.8" y="44.0549">LOBBY&#10;</tspan><tspan x="3407.04" y="59.0549">3R041</tspan></text>
</g>
<g id="THERMODYNAMICS AND  FLUID MECHANICS LABORATORY 3R016">
<rect id="Rectangle 1_13" x="3151.5" y="3.5" width="158" height="180" stroke="black" stroke-width="5"/>
<text id="THERMODYNAMICS AND  FLUID MECHANICS LABORATORY 3R016_2" fill="black" xml:space="preserve" style="white-space: pre" font-family="Inter" font-size="12" font-weight="bold" letter-spacing="0em"><tspan x="3171.87" y="77.8636">THERMODYNAMICS &#10;</tspan><tspan x="3161.94" y="92.8636">AND FLUID MECHANICS&#10;</tspan><tspan x="3191.34" y="107.864">LABORATORY&#10;</tspan><tspan x="3213.58" y="122.864">3R016&#10;</tspan></text>
</g>
<g id="AEROSPACE  LABORATORY 3R014">
<rect id="Rectangle 1_14" x="2919.5" y="3.5" width="232" height="180" stroke="black" stroke-width="5"/>
<text id="AEROSPACE  LABORATORY 3R014_2" fill="black" xml:space="preserve" style="white-space: pre" font-family="Inter" font-size="12" font-weight="bold" letter-spacing="0em"><tspan x="3000.45" y="77.8636">AEROSPACE &#10;</tspan><tspan x="2997.25" y="92.8636">LABORATORY&#10;</tspan><tspan x="3019.38" y="107.864">3R014</tspan></text>
</g>
<g id="GREEN ENGINEERING LABORATORY 3R012">
<rect id="Rectangle 1_15" x="2607.5" y="3.5" width="312" height="180" stroke="black" stroke-width="5"/>
<text id="GREEN ENGINEERING LABORATORY 3R012_2" fill="black" xml:space="preserve" style="white-space: pre" font-family="Inter" font-size="12" font-weight="bold" letter-spacing="0em"><tspan x="2699.98" y="80.8636">GREEN ENGINEERING&#10;</tspan><tspan x="2721.16" y="95.8636">LABORATORY&#10;</tspan><tspan x="2743.58" y="110.864">3R012</tspan></text>
</g>
<g id="MECHANICAL WORKSHOP 3R010">
<rect id="Rectangle 1_16" x="2291.5" y="3.5" width="316" height="180" stroke="black" stroke-width="5"/>
<text id="MECHANICAL WORKSHOP 3R010_2" fill="black" xml:space="preserve" style="white-space: pre" font-family="Inter" font-size="12" font-weight="bold" letter-spacing="0em"><tspan x="2407.25" y="80.8636">MECHANICAL&#10;</tspan><tspan x="2412.62" y="95.8636">WORKSHOP&#10;</tspan><tspan x="2429.22" y="110.864">3R010</tspan></text>
</g>
<g id="STUDY ROOM 3R008">
<rect id="Rectangle 1_17" x="2136.11" y="86.5" width="154.393" height="94" stroke="black" stroke-width="5"/>
<text id="STUDY ROOM 3R008_2" fill="black" xml:space="preserve" style="white-space: pre" font-family="Inter" font-size="12" font-weight="bold" letter-spacing="0em"><tspan x="2171.74" y="132.253">STUDY ROOM&#10;</tspan><tspan x="2192.59" y="147.253">3R008</tspan></text>
</g>
<g id="LECTURE  ROOM 3R006">
<rect id="Rectangle 1_18" x="2017.5" y="263.5" width="117.393" height="198" stroke="black" stroke-width="5"/>
<text id="LECTURE  ROOM 3R006_2" fill="black" xml:space="preserve" style="white-space: pre" font-family="Inter" font-size="12" font-weight="bold" letter-spacing="0em"><tspan x="2046.77" y="347.48">LECTURE &#10;</tspan><tspan x="2056.93" y="362.48">ROOM&#10;</tspan><tspan x="2055.63" y="377.48">3R006</tspan></text>
</g>
<g id="LECTURE  ROOM 3R009">
<rect id="Rectangle 1_19" x="2182.5" y="226.5" width="165.15" height="177" stroke="black" stroke-width="5"/>
<text id="LECTURE  ROOM 3R009_2" fill="black" xml:space="preserve" style="white-space: pre" font-family="Inter" font-size="12" font-weight="bold" letter-spacing="0em"><tspan x="2235.47" y="302.761">LECTURE &#10;</tspan><tspan x="2245.63" y="317.761">ROOM&#10;</tspan><tspan x="2244.33" y="332.761">3R009</tspan></text>
</g>
<g id="LECTURE  ROOM 3R011">
<rect id="Rectangle 1_20" x="2347.5" y="226.5" width="165.15" height="177" stroke="black" stroke-width="5"/>
<text id="LECTURE  ROOM 3R011_2" fill="black" xml:space="preserve" style="white-space: pre" font-family="Inter" font-size="12" font-weight="bold" letter-spacing="0em"><tspan x="2400.47" y="302.761">LECTURE &#10;</tspan><tspan x="2410.63" y="317.761">ROOM&#10;</tspan><tspan x="2411.55" y="332.761">3R011</tspan></text>
</g>
<g id="MATERIALS &#38; STRUCTURE LABORATORY 3R013">
<rect id="Rectangle 1_21" x="2512.5" y="226.5" width="328" height="177" stroke="black" stroke-width="5"/>
<text id="MATERIALS &#38; STRUCTURE LABORATORY 3R013_2" fill="black" xml:space="preserve" style="white-space: pre" font-family="Inter" font-size="12" font-weight="bold" letter-spacing="0em"><tspan x="2598.64" y="302.864">MATERIALS &#38; STRUCTURE&#10;</tspan><tspan x="2635.63" y="317.864">LABORATORY&#10;</tspan><tspan x="2657.88" y="332.864">3R013</tspan></text>
</g>
<g id="LECTURE  ROOM 3R002">
<rect id="Rectangle 1_22" x="2675.5" y="461.397" width="169" height="126.103" stroke="black" stroke-width="5"/>
<text id="LECTURE  ROOM 3R002_2" fill="black" xml:space="preserve" style="white-space: pre" font-family="Inter" font-size="12" font-weight="bold" letter-spacing="0em"><tspan x="2730.38" y="518.95">LECTURE &#10;</tspan><tspan x="2740.54" y="533.95">ROOM&#10;</tspan><tspan x="2739.42" y="548.95">3R002</tspan></text>
</g>
<g id="LECTURE  ROOM 3R003">
<rect id="Rectangle 1_23" x="2509.5" y="461.5" width="166" height="126" stroke="black" stroke-width="5"/>
<text id="LECTURE  ROOM 3R003_2" fill="black" xml:space="preserve" style="white-space: pre" font-family="Inter" font-size="12" font-weight="bold" letter-spacing="0em"><tspan x="2561.38" y="519.053">LECTURE &#10;</tspan><tspan x="2571.54" y="534.053">ROOM&#10;</tspan><tspan x="2570.24" y="549.053">3R003</tspan></text>
</g>
<g id="LECTURE  ROOM 3R004">
<rect id="Rectangle 1_24" x="2347.5" y="461.5" width="163" height="126" stroke="black" stroke-width="5"/>
<text id="LECTURE  ROOM 3R004_2" fill="black" xml:space="preserve" style="white-space: pre" font-family="Inter" font-size="12" font-weight="bold" letter-spacing="0em"><tspan x="2397.53" y="518.864">LECTURE &#10;</tspan><tspan x="2407.69" y="533.864">ROOM&#10;</tspan><tspan x="2406.28" y="548.864">3R004</tspan></text>
</g>
<g id="LECTURE  ROOM 3R005">
<rect id="Rectangle 1_25" x="2183.5" y="461.5" width="163" height="217" stroke="black" stroke-width="5"/>
<text id="LECTURE  ROOM 3R005_2" fill="black" xml:space="preserve" style="white-space: pre" font-family="Inter" font-size="12" font-weight="bold" letter-spacing="0em"><tspan x="2233.53" y="552.207">LECTURE &#10;</tspan><tspan x="2243.69" y="567.207">ROOM&#10;</tspan><tspan x="2242.48" y="582.207">3R005</tspan></text>
</g>
<g id="VOID_3">
<g id="Rectangle 1_26">
<mask id="path-94-inside-1_14_371" fill="white">
<path d="M2345 585H2678V889H2345V585Z"/>
</mask>
<path d="M2345 585V580H2340V585H2345ZM2345 889H2340V894H2345V889ZM2345 590H2678V580H2345V590ZM2678 884H2345V894H2678V884ZM2350 889V585H2340V889H2350Z" fill="black" mask="url(#path-94-inside-1_14_371)"/>
</g>
<g id="Rectangle 2">
<mask id="path-96-inside-2_14_371" fill="white">
<path d="M2673 585H2837V841H2673V585Z"/>
</mask>
<path d="M2837 585H2842V580H2837V585ZM2837 841V846H2842V841H2837ZM2673 590H2837V580H2673V590ZM2832 585V841H2842V585H2832ZM2837 836H2673V846H2837V836Z" fill="black" mask="url(#path-96-inside-2_14_371)"/>
</g>
<text id="VOID_4" fill="black" xml:space="preserve" style="white-space: pre" font-family="Inter" font-size="12" font-weight="bold" letter-spacing="0em"><tspan x="2593.02" y="724.864">VOID</tspan></text>
<line id="Line 125" x1="2675.5" y1="840" x2="2675.5" y2="888" stroke="black" stroke-width="5"/>
</g>
<g id="ENGINEERING FOUNDATION LABORATORY 1 3R032">
<rect id="Rectangle 1_27" x="2347.5" y="886.5" width="328" height="161" stroke="black" stroke-width="5"/>
<text id="ENGINEERING FOUNDATION LABORATORY 1 3R032_2" fill="black" xml:space="preserve" style="white-space: pre" font-family="Inter" font-size="12" font-weight="bold" letter-spacing="0em"><tspan x="2424.61" y="956.688">ENGINEERING FOUNDATION&#10;</tspan><tspan x="2461.06" y="971.688">LABORATORY 1&#10;</tspan><tspan x="2486.79" y="986.688">3R032</tspan></text>
</g>
<g id="ENGINEERING FOUNDATION LABORATORY 3 3R034">
<rect id="Rectangle 1_28" x="2182.5" y="1095.5" width="165" height="327" stroke="black" stroke-width="5"/>
<text id="ENGINEERING FOUNDATION LABORATORY 3 3R034_2" fill="black" xml:space="preserve" style="white-space: pre" font-family="Inter" font-size="12" font-weight="bold" letter-spacing="0em"><tspan x="2221.78" y="1234.51">ENGINEERING </tspan><tspan x="2222.61" y="1249.51">FOUNDATION&#10;</tspan><tspan x="2215.96" y="1264.51">LABORATORY 3&#10;</tspan><tspan x="2242.43" y="1279.51">3R034</tspan></text>
</g>
<g id="ENGINEERING FOUNDATION LABORATORY 2 3R033">
<rect id="Rectangle 1_29" x="2347.5" y="1095.5" width="165" height="327" stroke="black" stroke-width="5"/>
<text id="ENGINEERING FOUNDATION LABORATORY 2 3R033_2" fill="black" xml:space="preserve" style="white-space: pre" font-family="Inter" font-size="12" font-weight="bold" letter-spacing="0em"><tspan x="2386.78" y="1234.51">ENGINEERING </tspan><tspan x="2387.61" y="1249.51">FOUNDATION&#10;</tspan><tspan x="2381.14" y="1264.51">LABORATORY 2&#10;</tspan><tspan x="2407.54" y="1279.51">3R033</tspan></text>
</g>
<g id="LECTURE ROOM 3R031">
<rect id="Rectangle 1_30" x="2512.5" y="1095.5" width="165" height="117" stroke="black" stroke-width="5"/>
<text id="LECTURE ROOM 3R031_2" fill="black" xml:space="preserve" style="white-space: pre" font-family="Inter" font-size="12" font-weight="bold" letter-spacing="0em"><tspan x="2544.68" y="1152.51">LECTURE ROOM&#10;</tspan><tspan x="2573.56" y="1167.51">3R031</tspan></text>
</g>
<g id="LECTURE ROOM 3R030">
<rect id="Rectangle 1_31" x="2512.5" y="1212.5" width="165" height="210" stroke="black" stroke-width="5"/>
<text id="LECTURE ROOM 3R030_2" fill="black" xml:space="preserve" style="white-space: pre" font-family="Inter" font-size="12" font-weight="bold" letter-spacing="0em"><tspan x="2544.68" y="1305.82">LECTURE ROOM&#10;</tspan><tspan x="2572.36" y="1320.82">3R030</tspan></text>
</g>
<g id="MALE SURAU 3R035">
<rect id="Rectangle 1_32" x="2182.5" y="1424.5" width="165" height="175" stroke="black" stroke-width="5"/>
<text id="MALE SURAU 3R035_2" fill="black" xml:space="preserve" style="white-space: pre" font-family="Inter" font-size="12" font-weight="bold" letter-spacing="0em"><tspan x="2222.91" y="1504.16">MALE SURAU&#10;</tspan><tspan x="2242.62" y="1519.16">3R035</tspan></text>
</g>
<g id="MALE TOILETS 3RT05">
<rect id="Rectangle 1_33" x="2347.5" y="1466.5" width="82" height="133" stroke="black" stroke-width="5"/>
<text id="MALE TOILETS 3RT05_2" fill="black" xml:space="preserve" style="white-space: pre" font-family="Inter" font-size="12" font-weight="bold" letter-spacing="0em"><tspan x="2372.24" y="1517.86">MALE&#10;</tspan><tspan x="2364.09" y="1532.86">TOILETS&#10;</tspan><tspan x="2369.4" y="1547.86">3RT05</tspan></text>
</g>
<g id="LIFT LOBBY">
<g id="Rectangle 1_34">
<mask id="path-114-inside-3_14_371" fill="white">
<path d="M2510 1464H2782V1603H2510V1464Z"/>
</mask>
<path d="M2782 1464H2787V1459H2782V1464ZM2782 1603V1608H2787V1603H2782ZM2510 1469H2782V1459H2510V1469ZM2777 1464V1603H2787V1464H2777ZM2782 1598H2510V1608H2782V1598Z" fill="black" mask="url(#path-114-inside-3_14_371)"/>
</g>
<text id="LIFT LOBBY_2" fill="black" xml:space="preserve" style="white-space: pre" font-family="Inter" font-size="12" font-weight="bold" letter-spacing="0em"><tspan x="2611.51" y="1542.34">LIFT LOBBY</tspan></text>
</g>
<g id="FEMALE TOILETS 3RT04">
<rect id="Rectangle 1_35" x="2430.5" y="1466.5" width="82" height="99" stroke="black" stroke-width="5"/>
<text id="FEMALE TOILETS 3RT04_2" fill="black" xml:space="preserve" style="white-space: pre" font-family="Inter" font-size="12" font-weight="bold" letter-spacing="0em"><tspan x="2448.05" y="1505.86">FEMALE&#10;</tspan><tspan x="2447.09" y="1520.86">TOILETS&#10;</tspan><tspan x="2452.2" y="1535.86">3RT04</tspan></text>
</g>
<g id="STAIR 3">
<rect id="Rectangle 1_36" x="2780.5" y="1466.5" width="57.3557" height="134" stroke="black" stroke-width="5"/>
<text id="STAIR 3_2" fill="black" xml:space="preserve" style="white-space: pre" font-family="Inter" font-size="12" font-weight="bold" letter-spacing="0em"><tspan x="2792.23" y="1515.96">STAIR&#10;</tspan><tspan x="2805.79" y="1530.96">3</tspan></text>
</g>
<g id="COMPUTER SCIENCE LABORATORY 3R027">
<rect id="Rectangle 1_37" x="2841.5" y="1059.5" width="235" height="179" stroke="black" stroke-width="5"/>
<text id="COMPUTER SCIENCE LABORATORY 3R027_2" fill="black" xml:space="preserve" style="white-space: pre" font-family="Inter" font-size="12" font-weight="bold" letter-spacing="0em"><tspan x="2896.21" y="1142.86">COMPUTER SCIENCE&#10;</tspan><tspan x="2917.41" y="1157.86">LABORATORY&#10;</tspan><tspan x="2939.2" y="1172.86">3R027</tspan></text>
</g>
<g id="COMPUTER SCIENCE LABORATORY 3R028">
<rect id="Rectangle 1_38" x="2841.5" y="886.5" width="235" height="173" stroke="black" stroke-width="5"/>
<text id="COMPUTER SCIENCE LABORATORY 3R028_2" fill="black" xml:space="preserve" style="white-space: pre" font-family="Inter" font-size="12" font-weight="bold" letter-spacing="0em"><tspan x="2896.21" y="967.451">COMPUTER SCIENCE&#10;</tspan><tspan x="2917.41" y="982.451">LABORATORY&#10;</tspan><tspan x="2938.8" y="997.451">3R028</tspan></text>
</g>
<g id="COMPUTER SCIENCE LABORATORY 3R023">
<rect id="Rectangle 1_39" x="3076.5" y="893.5" width="233" height="345" stroke="black" stroke-width="5"/>
<text id="COMPUTER SCIENCE LABORATORY 3R023_2" fill="black" xml:space="preserve" style="white-space: pre" font-family="Inter" font-size="12" font-weight="bold" letter-spacing="0em"><tspan x="3130.21" y="1043.62">COMPUTER SCIENCE&#10;</tspan><tspan x="3151.41" y="1058.62">LABORATORY&#10;</tspan><tspan x="3172.82" y="1073.62">3R023</tspan></text>
</g>
<g id="LECTURE ROOM 3R021">
<rect id="Rectangle 1_40" x="3076.5" y="705.5" width="233" height="188" stroke="black" stroke-width="5"/>
<text id="LECTURE ROOM 3R021_2" fill="black" xml:space="preserve" style="white-space: pre" font-family="Inter" font-size="12" font-weight="bold" letter-spacing="0em"><tspan x="3144.79" y="792.483">LECTURE ROOM&#10;</tspan><tspan x="3173.84" y="807.483">3R021</tspan></text>
</g>
<g id="LECTURE ROOM 3R019">
<rect id="Rectangle 1_41" x="3076.5" y="397.5" width="233" height="176" stroke="black" stroke-width="5"/>
<text id="LECTURE ROOM 3R019_2" fill="black" xml:space="preserve" style="white-space: pre" font-family="Inter" font-size="12" font-weight="bold" letter-spacing="0em"><tspan x="3144.79" y="479.657">LECTURE ROOM&#10;</tspan><tspan x="3173.66" y="494.657">3R019</tspan></text>
</g>
<g id="LECTURE ROOM 3R017">
<rect id="Rectangle 1_42" x="3076.5" y="228.5" width="233" height="169" stroke="black" stroke-width="5"/>
<text id="LECTURE ROOM 3R017_2" fill="black" xml:space="preserve" style="white-space: pre" font-family="Inter" font-size="12" font-weight="bold" letter-spacing="0em"><tspan x="3144.79" y="307.842">LECTURE ROOM&#10;</tspan><tspan x="3174.05" y="322.842">3R017</tspan></text>
</g>
<g id="DESIGN  STUDIO 3R015">
<rect id="Rectangle 1_43" x="2904.14" y="228.5" width="172.364" height="345" stroke="black" stroke-width="5"/>
<text id="DESIGN  STUDIO 3R015_2" fill="black" xml:space="preserve" style="white-space: pre" font-family="Inter" font-size="12" font-weight="bold" letter-spacing="0em"><tspan x="2968.74" y="386.864">DESIGN &#10;</tspan><tspan x="2969.7" y="401.864">STUDIO&#10;</tspan><tspan x="2973.93" y="416.864">3R015</tspan></text>
</g>
<g id="LIFT LOBBY 2">
<rect id="Rectangle 1_44" x="1662.5" y="235.5" width="232" height="155" stroke="black" stroke-width="5"/>
<text id="LIFT LOBBY_3" fill="black" xml:space="preserve" style="white-space: pre" font-family="Inter" font-size="12" font-weight="bold" letter-spacing="0em"><tspan x="1769.16" y="312.978">LIFT&#10;</tspan><tspan x="1761.56" y="327.978">LOBBY</tspan></text>
</g>
<g id="LOBBY 3L003">
<rect id="Rectangle 1_45" x="1409.5" y="235.5" width="184" height="224" stroke="black" stroke-width="5"/>
<text id="LOBBY 3L003_2" fill="black" xml:space="preserve" style="white-space: pre" font-family="Inter" font-size="12" font-weight="bold" letter-spacing="0em"><tspan x="1483.89" y="342.352">LOBBY&#10;</tspan><tspan x="1484.53" y="357.352">3L003</tspan></text>
</g>
<g id="ACADEMICS SUITE 3L029">
<rect id="Rectangle 1_46" x="1096.5" y="235.5" width="312" height="224" stroke="black" stroke-width="5"/>
<text id="ACADEMICS SUITE 3L029_2" fill="black" xml:space="preserve" style="white-space: pre" font-family="Inter" font-size="12" font-weight="bold" letter-spacing="0em"><tspan x="1200.95" y="342.352">ACADEMICS SUITE&#10;</tspan><tspan x="1237.64" y="357.352">3L029</tspan></text>
</g>
<g id="ACADEMICS SUITE 3L028">
<rect id="Rectangle 1_47" x="784.5" y="235.5" width="312" height="224" stroke="black" stroke-width="5"/>
<text id="ACADEMICS SUITE 3L028_2" fill="black" xml:space="preserve" style="white-space: pre" font-family="Inter" font-size="12" font-weight="bold" letter-spacing="0em"><tspan x="888.95" y="342.352">ACADEMICS SUITE&#10;</tspan><tspan x="925.63" y="357.352">3L028</tspan></text>
</g>
<g id="ACADEMICS SUITE 3L027">
<rect id="Rectangle 1_48" x="395.5" y="235.5" width="389" height="224" stroke="black" stroke-width="5"/>
<text id="ACADEMICS SUITE 3L027_2" fill="black" xml:space="preserve" style="white-space: pre" font-family="Inter" font-size="12" font-weight="bold" letter-spacing="0em"><tspan x="539.511" y="342.352">ACADEMICS SUITE&#10;</tspan><tspan x="576.589" y="357.352">3L027</tspan></text>
</g>
<g id="MEETING ROOM 3L026">
<rect id="Rectangle 1_49" x="238.5" y="235.5" width="157" height="224" stroke="black" stroke-width="5"/>
<text id="MEETING ROOM 3L026_2" fill="black" xml:space="preserve" style="white-space: pre" font-family="Inter" font-size="12" font-weight="bold" letter-spacing="0em"><tspan x="271.524" y="342.352">MEETING ROOM&#10;</tspan><tspan x="300.001" y="357.352">3L026</tspan></text>
</g>
<g id="PANTRY 3L025">
<rect id="Rectangle 1_50" x="92.5" y="235.5" width="146" height="224" stroke="black" stroke-width="5"/>
<text id="PANTRY 3L025_2" fill="black" xml:space="preserve" style="white-space: pre" font-family="Inter" font-size="12" font-weight="bold" letter-spacing="0em"><tspan x="143.187" y="342.352">PANTRY&#10;</tspan><tspan x="148.443" y="357.352">3L025</tspan></text>
</g>
<g id="FEMALE TOILETS 3LT06">
<rect id="Rectangle 1_51" x="4.5" y="387.5" width="87" height="71" stroke="black" stroke-width="5"/>
<text id="FEMALE TOILETS 3LT06_2" fill="black" xml:space="preserve" style="white-space: pre" font-family="Inter" font-size="12" font-weight="bold" letter-spacing="0em"><tspan x="23.7955" y="414.402">FEMALE&#10;</tspan><tspan x="22.8345" y="429.402">TOILETS&#10;</tspan><tspan x="29.1217" y="444.402">3LT06</tspan></text>
</g>
<g id="MALE TOILETS 3LT05">
<rect id="Rectangle 1_52" x="2.5" y="317.5" width="57" height="68" stroke="black" stroke-width="5"/>
<text id="MALE TOILETS 3LT05_2" fill="black" xml:space="preserve" style="white-space: pre" font-family="Inter" font-size="10" font-weight="bold" letter-spacing="0em"><tspan x="16.8102" y="341.482">MALE&#10;</tspan><tspan x="10.0231" y="353.482">TOILETS&#10;</tspan><tspan x="15.3405" y="365.482">3LT05</tspan></text>
</g>
<g id="OKU TOILET 3LT04">
<rect id="Rectangle 1_53" x="2.5" y="264.5" width="43.0746" height="52" stroke="black" stroke-width="5"/>
<text id="OKU TOILET 3LT04_2" fill="black" xml:space="preserve" style="white-space: pre" font-family="Inter" font-size="10" font-weight="bold" letter-spacing="0em"><tspan x="12.9941" y="281.636">OKU&#10;</tspan><tspan x="6.27539" y="293.636">TOILET&#10;</tspan><tspan x="8.15039" y="305.636">3LT04</tspan></text>
</g>
<g id="STAIR 1">
<rect id="Rectangle 1_54" x="2.5" y="3.5" width="59" height="127" stroke="black" stroke-width="5"/>
<text id="STAIR 1_2" fill="black" xml:space="preserve" style="white-space: pre" font-family="Inter" font-size="10" font-weight="bold" letter-spacing="0em"><tspan x="14.6931" y="59.6364">STAIR&#10;</tspan><tspan x="26.8415" y="71.6364">1</tspan></text>
</g>
<g id="EXECUTIVE EDUCATION SUITE 3L024">
<rect id="Rectangle 1_55" x="61.5" y="3.5" width="177" height="178" stroke="black" stroke-width="5"/>
<text id="EXECUTIVE EDUCATION SUITE 3L024_2" fill="black" xml:space="preserve" style="white-space: pre" font-family="Inter" font-size="12" font-weight="bold" letter-spacing="0em"><tspan x="118.13" y="90.7694">EXECUTIVE&#10;</tspan><tspan x="97.8505" y="105.769">EDUCATION SUITE&#10;</tspan><tspan x="133.265" y="120.769">3L024</tspan></text>
</g>
<g id="BOARD ROOM 3L023">
<rect id="Rectangle 1_56" x="238.5" y="3.5" width="157" height="178" stroke="black" stroke-width="5"/>
<text id="BOARD ROOM 3L023_2" fill="black" xml:space="preserve" style="white-space: pre" font-family="Inter" font-size="12" font-weight="bold" letter-spacing="0em"><tspan x="277.823" y="90.7694">BOARD ROOM&#10;</tspan><tspan x="300.007" y="105.769">3L023</tspan></text>
</g>
<g id="FINANCE OFFICE 3L021">
<rect id="Rectangle 1_57" x="395.5" y="3.5" width="107" height="178" stroke="black" stroke-width="5"/>
<text id="FINANCE  OFFICE 3L021" fill="black" xml:space="preserve" style="white-space: pre" font-family="Inter" font-size="12" font-weight="bold" letter-spacing="0em"><tspan x="422.464" y="90.7694">FINANCE &#10;</tspan><tspan x="428.963" y="105.769">OFFICE&#10;</tspan><tspan x="432.338" y="120.769">3L021</tspan></text>
</g>
<g id="HUMAN RESOURCE OFFICE 3L019">
<rect id="Rectangle 1_58" x="502.5" y="3.5" width="124" height="178" stroke="black" stroke-width="5"/>
<text id="HUMAN RESOURCE OFFICE 3L019_2" fill="black" xml:space="preserve" style="white-space: pre" font-family="Inter" font-size="12" font-weight="bold" letter-spacing="0em"><tspan x="543.033" y="90.7694">HUMAN&#10;</tspan><tspan x="533.54" y="105.769">RESOURCE&#10;</tspan><tspan x="544.697" y="120.769">OFFICE&#10;</tspan><tspan x="547.89" y="135.769">3L019</tspan></text>
</g>
<g id="HUMAN RESOURCE OFFICE 3L019_3">
<rect id="Rectangle 1_59" x="626.5" y="3.5" width="625" height="178" stroke="black" stroke-width="5"/>
<text id="HUMAN RESOURCE OFFICE 3L019_4" fill="black" xml:space="preserve" style="white-space: pre" font-family="Inter" font-size="12" font-weight="bold" letter-spacing="0em"><tspan x="850.262" y="94.8636">HEAD OF PROGRAMME OFFICE&#10;</tspan><tspan x="899.223" y="109.864">3L008 -3L018</tspan></text>
</g>
<g id="BREAKOUT ROOMS 3L004">
<rect id="Rectangle 1_60" x="1251.5" y="82.5" width="160" height="99" stroke="black" stroke-width="5"/>
<text id="BREAKOUT ROOMS 3L004_2" fill="black" xml:space="preserve" style="white-space: pre" font-family="Inter" font-size="12" font-weight="bold" letter-spacing="0em"><tspan x="1275.29" y="134.864">BREAKOUT ROOMS&#10;</tspan><tspan x="1312.77" y="149.864">3L004</tspan></text>
</g>
<g id="MEETING ROOM 3L003">
<text id="MEETING ROOM 3L003_2" fill="black" xml:space="preserve" style="white-space: pre" font-family="Inter" font-size="12" font-weight="bold" letter-spacing="0em"><tspan x="1435.95" y="129.864">MEETING&#10;</tspan><tspan x="1444.64" y="144.864">ROOM&#10;</tspan><tspan x="1443.88" y="159.864">3L003</tspan></text>
<line id="Line 126" x1="1411.99" y1="181.5" x2="1571.99" y2="181.5" stroke="black" stroke-width="5"/>
</g>
<text id="ENTRANCE  LOBBY" fill="black" xml:space="preserve" style="white-space: pre" font-family="Inter" font-size="12" font-weight="bold" letter-spacing="0em"><tspan x="2054.49" y="202.864">ENTRANCE &#10;</tspan><tspan x="2068.79" y="217.864">LOBBY</tspan></text>
</g>
</svg>
